<svg width="24" height="24" viewBox="0 0 24 24" fill="none" xmlns="http://www.w3.org/2000/svg">
<rect x="5" y="7" width="13" height="1.5" rx="0.75" fill="#387DFF"/>
<rect x="5" y="11" width="10" height="1.5" rx="0.75" fill="#387DFF"/>
<path d="M2 5C2 3.89543 2.89543 3 4 3H20C21.1046 3 22 3.89543 22 5V15.7568C22 16.8613 21.1046 17.7568 20 17.7568H15.1828C14.5756 17.7568 14.0013 18.0326 13.6217 18.5065L10.1125 22.8884C9.81713 23.2572 9.22222 23.0483 9.22222 22.5758V19.7568C9.22222 18.6522 8.32679 17.7568 7.22222 17.7568H4C2.89543 17.7568 2 16.8613 2 15.7568V5Z" stroke="#387DFF" stroke-width="1.5"/>
</svg>
