<svg width="24" height="24" viewBox="0 0 24 24" fill="none" xmlns="http://www.w3.org/2000/svg">
<circle cx="12" cy="12" r="9" stroke="#387DFB" stroke-width="1.5"/>
<path d="M12.6681 14.6504H11.083C11.0789 14.4225 11.0768 14.2837 11.0768 14.234C11.0768 13.7201 11.1618 13.2974 11.3317 12.9659C11.5016 12.6344 11.8414 12.2615 12.3511 11.8471C12.8608 11.4327 13.1653 11.1613 13.2648 11.0328C13.4181 10.8298 13.4948 10.606 13.4948 10.3615C13.4948 10.0217 13.358 9.73164 13.0845 9.49129C12.8152 9.2468 12.4505 9.12456 11.9906 9.12456C11.5472 9.12456 11.1763 9.25095 10.8779 9.50372C10.5796 9.7565 10.3744 10.1419 10.2626 10.6599L8.65887 10.461C8.70446 9.7192 9.01939 9.08934 9.60368 8.57135C10.1921 8.05337 10.9629 7.79437 11.916 7.79437C12.9188 7.79437 13.7165 8.05751 14.3091 8.58378C14.9016 9.10591 15.1979 9.71506 15.1979 10.4112C15.1979 10.7966 15.0881 11.1613 14.8685 11.5052C14.653 11.8492 14.1889 12.3174 13.4761 12.91C13.1073 13.2166 12.8773 13.4632 12.7862 13.6497C12.6992 13.8361 12.6598 14.1697 12.6681 14.6504ZM11.083 17V15.2534H12.8297V17H11.083Z" fill="#387DFF"/>
</svg>
