<svg width="24" height="24" viewBox="0 0 24 24" fill="none" xmlns="http://www.w3.org/2000/svg">
<path fill-rule="evenodd" clip-rule="evenodd" d="M9.80645 18.2581C13.9219 18.2581 17.2581 14.9219 17.2581 10.8065C17.2581 6.69104 13.9219 3.35484 9.80645 3.35484C5.69104 3.35484 2.35484 6.69104 2.35484 10.8065C2.35484 14.9219 5.69104 18.2581 9.80645 18.2581ZM9.80645 19.6129C14.6701 19.6129 18.6129 15.6701 18.6129 10.8065C18.6129 5.94278 14.6701 2 9.80645 2C4.94278 2 1 5.94278 1 10.8065C1 15.6701 4.94278 19.6129 9.80645 19.6129ZM19.2773 11.3074C19.2494 11.8447 19.1767 12.3702 19.0629 12.8802C20.0375 13.8059 20.6452 15.1142 20.6452 16.5645C20.6452 19.3705 18.3705 21.6452 15.5645 21.6452C14.1142 21.6452 12.8059 21.0375 11.8802 20.0629C11.3702 20.1767 10.8447 20.2493 10.3074 20.2773C11.4729 21.9246 13.3931 23 15.5645 23C19.1187 23 22 20.1187 22 16.5645C22 14.3931 20.9246 12.4729 19.2773 11.3074ZM8.93984 11.4548C8.78989 11.8208 8.71491 12.3126 8.71491 12.93H10.4085L10.4349 12.5265C10.4834 12.0942 10.6753 11.7172 11.0105 11.3952L11.5463 10.8858C11.9653 10.4801 12.2586 10.1118 12.4262 9.78105C12.5938 9.44587 12.6776 9.09085 12.6776 8.71597C12.6776 7.89125 12.4195 7.25396 11.9035 6.80411C11.3875 6.34985 10.6621 6.12273 9.72707 6.12273C8.80091 6.12273 8.06881 6.36088 7.53075 6.83719C6.99711 7.3135 6.72587 7.97284 6.71705 8.8152H8.63553C8.64435 8.46238 8.74578 8.18674 8.93984 7.98827C9.1383 7.7854 9.40071 7.68396 9.72707 7.68396C10.4151 7.68396 10.7591 8.05663 10.7591 8.80197C10.7591 9.04895 10.6929 9.2849 10.5606 9.50982C10.4283 9.73034 10.1615 10.0192 9.76015 10.3764C9.36322 10.7293 9.08979 11.0887 8.93984 11.4548ZM8.82076 14.2332C8.6223 14.4229 8.52307 14.6654 8.52307 14.9609C8.52307 15.252 8.62009 15.4924 8.81414 15.682C9.01261 15.8717 9.27281 15.9665 9.59476 15.9665C9.91671 15.9665 10.1747 15.8717 10.3688 15.682C10.5672 15.4924 10.6665 15.252 10.6665 14.9609C10.6665 14.6654 10.565 14.4229 10.3622 14.2332C10.1637 14.0392 9.90789 13.9422 9.59476 13.9422C9.28163 13.9422 9.02363 14.0392 8.82076 14.2332Z" fill="#387DFF"/>
</svg>
