<svg width="32" height="32" viewBox="0 0 32 32" fill="none" xmlns="http://www.w3.org/2000/svg">
<g id="user">
<path id="Union" fill-rule="evenodd" clip-rule="evenodd" d="M21 9C21 10.7653 20.3635 12.5981 19.3468 13.9608C18.3198 15.3372 17.1023 16 16 16C14.8977 16 13.6802 15.3372 12.6532 13.9608C11.6365 12.5981 11 10.7653 11 9C11 7.2893 11.593 6.08241 12.4243 5.2964C13.273 4.49392 14.51 4 16 4C17.49 4 18.727 4.49392 19.5757 5.2964C20.407 6.08241 21 7.2893 21 9ZM23 9C23 13.4183 19.866 18 16 18C12.134 18 9 13.4183 9 9C9 4.58172 12.134 2 16 2C19.866 2 23 4.58172 23 9ZM26.875 27.9956C26.8744 27.997 26.8736 27.9985 26.8728 28H5.23078L5.44317 27.5737C7.44975 23.5459 11.5624 21 16.0623 21C20.6913 21 24.9377 23.7528 26.8745 27.9801L26.8763 27.9842L26.8777 27.9879L26.8767 27.9912C26.8763 27.9926 26.8757 27.9941 26.875 27.9956ZM3.65302 26.6818C5.99786 21.9751 10.8038 19 16.0623 19C21.4838 19 26.4345 22.2182 28.6928 27.147C29.2997 28.4716 28.3411 30 26.8841 30H5.23078C3.74529 30 2.77823 28.4378 3.44063 27.1082L3.65302 26.6818Z" fill="black"/>
</g>
</svg>
