<svg width="24" height="24" viewBox="0 0 24 24" fill="none" xmlns="http://www.w3.org/2000/svg">
<g clip-path="url(#clip0)">
<path fill-rule="evenodd" clip-rule="evenodd" d="M12.7586 0.758621C12.7586 0.339646 12.419 0 12 0C11.581 0 11.2414 0.339646 11.2414 0.75862V1.51724C11.2414 1.93622 11.581 2.27586 12 2.27586C12.419 2.27586 12.7586 1.93622 12.7586 1.51724V0.758621ZM17.7817 3.44075L18.3181 2.90433C18.6144 2.60807 18.6144 2.12773 18.3181 1.83147C18.0219 1.53522 17.5415 1.53521 17.2453 1.83147L16.7088 2.3679C16.4126 2.66416 16.4126 3.14449 16.7088 3.44075C17.0051 3.73701 17.4854 3.73701 17.7817 3.44075ZM3.27586 6.82759C3.27586 6.40861 3.61551 6.06897 4.03448 6.06897H4.7931C5.21208 6.06897 5.55172 6.40861 5.55172 6.82759C5.55172 7.24656 5.21208 7.58621 4.7931 7.58621H4.03448C3.61551 7.58621 3.27586 7.24656 3.27586 6.82759ZM18.4483 6.82759C18.4483 6.40861 18.7879 6.06897 19.2069 6.06897H19.9655C20.3845 6.06897 20.7241 6.40861 20.7241 6.82759C20.7241 7.24656 20.3845 7.58621 19.9655 7.58621H19.2069C18.7879 7.58621 18.4483 7.24656 18.4483 6.82759ZM7.47521 2.3679L6.93879 1.83147C6.64253 1.53521 6.1622 1.53522 5.86594 1.83147C5.56968 2.12773 5.56968 2.60807 5.86594 2.90433L6.40236 3.44075C6.69862 3.73701 7.17895 3.73701 7.47521 3.44075C7.77147 3.14449 7.77147 2.66416 7.47521 2.3679ZM6.62803 10.6034H3C2.72386 10.6034 2.5 10.8273 2.5 11.1034V19.4062C2.5 19.6824 2.72386 19.9062 3 19.9062H8.18258H8.69812L9.10472 20.2232L11.8705 22.379L14.6826 20.217L15.0869 19.9062H15.5969H21C21.2761 19.9062 21.5 19.6824 21.5 19.4062V11.1034C21.5 10.8273 21.2761 10.6034 21 10.6034H17.372C17.0192 11.612 16.3904 12.4909 15.5762 13.1497L14.8723 17.2319C14.7468 17.9597 14.1156 18.4914 13.3771 18.4914H10.6229C9.88438 18.4914 9.25315 17.9597 9.12768 17.2319L8.42385 13.1497C7.60962 12.4909 6.98083 11.612 6.62803 10.6034ZM6.32279 9.10345H3C1.89543 9.10345 1 9.99888 1 11.1034V19.4062C1 20.5108 1.89543 21.4062 3 21.4062H8.18258L11.8642 24.2759L15.5969 21.4062H21C22.1046 21.4062 23 20.5108 23 19.4062V11.1034C23 9.99888 22.1046 9.10345 21 9.10345H17.6772C17.6855 8.97808 17.6897 8.8516 17.6897 8.72414C17.6897 5.58183 15.1423 3.03448 12 3.03448C8.85769 3.03448 6.31034 5.58183 6.31034 8.72414C6.31034 8.8516 6.31454 8.97808 6.32279 9.10345ZM14.178 12.3293L14.6218 11.9702C15.5703 11.2028 16.1724 10.0343 16.1724 8.72414C16.1724 6.41978 14.3044 4.55172 12 4.55172C9.69564 4.55172 7.82759 6.41978 7.82759 8.72414C7.82759 10.0343 8.42971 11.2028 9.37817 11.9702L9.82202 12.3293L10.1814 14.4138H13.8186L14.178 12.3293ZM10.6229 16.9741L10.443 15.931H13.557L13.3771 16.9741H10.6229Z" fill="#387DFF"/>
</g>
<defs>
<clipPath id="clip0">
<rect width="24" height="24" fill="white"/>
</clipPath>
</defs>
</svg>
