<svg width="24" height="24" viewBox="0 0 24 24" fill="none" xmlns="http://www.w3.org/2000/svg">
<g clip-path="url(#clip0)">
<path d="M5.24902 17.25C6.90588 17.25 8.24902 15.9069 8.24902 14.25C8.24902 12.5931 6.90588 11.25 5.24902 11.25C3.59217 11.25 2.24902 12.5931 2.24902 14.25C2.24902 15.9069 3.59217 17.25 5.24902 17.25Z" stroke="#387DFB" stroke-width="1.5" stroke-linecap="round" stroke-linejoin="round"/>
<path d="M9.74902 23.25C9.74902 22.0565 9.27492 20.9119 8.431 20.068C7.58709 19.2241 6.4425 18.75 5.24902 18.75C4.05555 18.75 2.91096 19.2241 2.06704 20.068C1.22313 20.9119 0.749023 22.0565 0.749023 23.25" stroke="#387DFB" stroke-width="1.5" stroke-linecap="round" stroke-linejoin="round"/>
<path d="M22.5 23.25C22.5 22.0565 22.0259 20.9119 21.182 20.068C20.3381 19.2241 19.1935 18.75 18 18.75C16.8065 18.75 15.6619 19.2241 14.818 20.068C13.9741 20.9119 13.5 22.0565 13.5 23.25" stroke="#387DFB" stroke-width="1.5" stroke-linecap="round" stroke-linejoin="round"/>
<path d="M17.999 17.25C19.6559 17.25 20.999 15.9069 20.999 14.25C20.999 12.5931 19.6559 11.25 17.999 11.25C16.3422 11.25 14.999 12.5931 14.999 14.25C14.999 15.9069 16.3422 17.25 17.999 17.25Z" stroke="#387DFB" stroke-width="1.5" stroke-linecap="round" stroke-linejoin="round"/>
<path d="M15 14.25C15 14.25 15 18 12.749 18" stroke="#387DFB" stroke-width="1.5" stroke-linecap="round" stroke-linejoin="round"/>
<path d="M21 14.25C21 14.25 21 18 23.249 18" stroke="#387DFB" stroke-width="1.5" stroke-linecap="round" stroke-linejoin="round"/>
<path d="M16.2711 1.5C16.0443 1.26211 15.7716 1.07273 15.4695 0.943336C15.1674 0.813941 14.8422 0.747222 14.5136 0.747222C14.1849 0.747222 13.8597 0.813941 13.5576 0.943336C13.2555 1.07273 12.9828 1.26211 12.7561 1.5L11.2491 3.06L9.74307 1.5C9.51623 1.26208 9.24346 1.07268 8.94128 0.943278C8.6391 0.813871 8.31379 0.747147 7.98507 0.747147C7.65634 0.747147 7.33104 0.813871 7.02886 0.943278C6.72668 1.07268 6.45391 1.26208 6.22707 1.5C5.75961 1.98963 5.49878 2.64055 5.49878 3.3175C5.49878 3.99444 5.75961 4.64536 6.22707 5.135L10.7141 9.774C10.7832 9.8463 10.8662 9.90385 10.9581 9.94316C11.0501 9.98248 11.1491 10.0027 11.2491 10.0027C11.3491 10.0027 11.448 9.98248 11.54 9.94316C11.6319 9.90385 11.715 9.8463 11.7841 9.774L16.2711 5.135C16.7385 4.64536 16.9994 3.99444 16.9994 3.3175C16.9994 2.64055 16.7385 1.98963 16.2711 1.5Z" stroke="#387DFB" stroke-width="1.5" stroke-linecap="round" stroke-linejoin="round"/>
</g>
<defs>
<clipPath id="clip0">
<rect width="24" height="24" fill="white"/>
</clipPath>
</defs>
</svg>
