<svg width="24" height="24" viewBox="0 0 24 24" fill="none" xmlns="http://www.w3.org/2000/svg">
<path fill-rule="evenodd" clip-rule="evenodd" d="M24 5.25C24 4.00736 22.9926 3 21.75 3H7.49999C6.25735 3 5.24999 4.00736 5.24999 5.25V6.75H6.74998V5.24999L6.75503 5.16253C6.79835 4.78952 7.11536 4.49999 7.49998 4.49999H21.75L21.8374 4.50504C22.2105 4.54836 22.5 4.86537 22.5 5.24999V13.5L22.4949 13.5875C22.4516 13.9605 22.1346 14.25 21.75 14.25H19.5V15.75H21.75C22.9926 15.75 24 14.7426 24 13.5V5.25ZM16.5 7.5C17.7426 7.5 18.75 8.50736 18.75 9.75V18C18.75 19.2426 17.7426 20.25 16.5 20.25H11.9549L9.5 23.5L7.32596 20.25H2.25C1.00736 20.25 0 19.2426 0 18V9.75C0 8.50736 1.00736 7.5 2.25 7.5H16.5ZM16.5 9H2.24999C1.86537 9 1.54836 9.28953 1.50504 9.66254L1.49999 9.75V18C1.49999 18.3846 1.78952 18.7016 2.16253 18.745L2.24999 18.75H8.15936L9.51599 20.9303L11.2244 18.75H16.5C16.8846 18.75 17.2016 18.4605 17.2449 18.0875L17.25 18V9.75C17.25 9.36538 16.9605 9.04837 16.5875 9.00505L16.5 9Z" fill="#387DFF"/>
</svg>
