<svg width="32" height="32" viewBox="0 0 32 32" fill="none" xmlns="http://www.w3.org/2000/svg">
<g id="tour">
<path id="Combined Shape" fill-rule="evenodd" clip-rule="evenodd" d="M32 6C32 4.34315 30.6569 3 29 3H10C8.34315 3 7 4.34315 7 6V8H9V6L9.00673 5.88338C9.06449 5.38604 9.48716 5 10 5H29L29.1166 5.00673C29.614 5.06449 30 5.48716 30 6V17L29.9933 17.1166C29.9355 17.614 29.5128 18 29 18H26V20H29C30.6569 20 32 18.6569 32 17V6ZM22 9C23.6569 9 25 10.3431 25 12V23C25 24.6569 23.6569 26 22 26H15.9399L12.5 30.3916L9.76794 26H3C1.34315 26 0 24.6569 0 23V12C0 10.3431 1.34315 9 3 9H22ZM22 11H3C2.48716 11 2.06449 11.386 2.00673 11.8834L2 12V23C2 23.5128 2.38604 23.9355 2.88338 23.9933L3 24H10.8792L12.688 26.907L14.9659 24H22C22.5128 24 22.9355 23.614 22.9933 23.1166L23 23V12C23 11.4872 22.614 11.0645 22.1166 11.0067L22 11Z" fill="black"/>
</g>
</svg>
